<?xml version="1.0" encoding="UTF-8" standalone="no"?>
<!-- Created with Inkscape (http://www.inkscape.org/) -->

<svg
   width="1200"
   height="500"
   viewBox="0 0 317.49999 132.29167"
   version="1.1"
   id="svg1"
   inkscape:export-filename="logo.svg"
   inkscape:export-xdpi="96"
   inkscape:export-ydpi="96"
   xmlns:inkscape="http://www.inkscape.org/namespaces/inkscape"
   xmlns:sodipodi="http://sodipodi.sourceforge.net/DTD/sodipodi-0.dtd"
   xmlns="http://www.w3.org/2000/svg"
   xmlns:svg="http://www.w3.org/2000/svg">
  <sodipodi:namedview
     id="namedview1"
     pagecolor="#0d1117"
     bordercolor="#000000"
     borderopacity="0.25"
     inkscape:showpageshadow="2"
     inkscape:pageopacity="0.0"
     inkscape:pagecheckerboard="0"
     inkscape:deskcolor="#0d1117"
     inkscape:document-units="mm" />
  <defs
     id="defs1" />
  <g
     inkscape:label="Layer 1"
     inkscape:groupmode="layer"
     id="layer1">
    <path
       id="path1-4"
       d="M 78.950765,71.974967 H 76.84363 C 75.900718,83.563939 74.403861,98.590781 54.331092,98.590781 H 43.407524 c -4.657826,0 -4.879538,-0.609868 -4.879538,-4.546862 V 29.999615 c 0,-4.214175 0.22131,-5.434059 9.149201,-5.434059 h 2.550693 v -3.049739 c -4.824145,0.27724 -10.424616,0.27724 -15.24876,0.27724 -3.604125,0 -10.202635,0 -13.585048,-0.27724 v 3.049739 c 8.095634,0 9.370914,0 9.370914,5.323163 V 93.32307 c 0,5.267711 -1.275547,5.267711 -9.370914,5.267711 v 3.049739 H 76.178227 Z M 86.824553,7.2929944 C 86.214276,5.7404078 85.992966,5.4077067 84.828342,5.4077067 c -1.164222,0 -1.441596,0.3326347 -1.996078,1.8852877 L 57.935352,77.658558 c -2.218059,6.321255 -6.875751,7.596603 -10.979097,7.596603 v 3.049719 c 2.107135,-0.221837 6.764962,-0.221837 9.038279,-0.221837 2.883461,0 7.596682,0 10.424615,0.221837 v -3.049719 c -5.544942,-0.221848 -6.321269,-3.992385 -6.321269,-5.37861 0,-1.053574 0.22131,-1.663494 0.44396,-2.384334 l 6.210347,-17.466633 h 30.719098 l 7.042075,19.961865 c 0.61027,1.386235 0.61027,1.60803 0.61027,2.107074 0,3.160638 -5.046,3.160638 -7.263914,3.160638 v 3.049719 c 3.382414,-0.221837 9.481834,-0.221837 13.086094,-0.221837 3.04979,0 8.92736,0 11.75529,0.221837 v -3.049719 c -6.21035,0 -8.31735,0 -9.87,-4.325078 z M 82.111332,16.663975 96.417314,56.975846 H 67.805351 Z m 86.737088,5.239993 h -67.70394 l -1.996205,25.894965 h 2.107135 c 1.55251,-19.462814 3.16057,-22.845241 21.23713,-22.845241 2.10712,0 5.54494,0 6.43218,0.111326 2.27346,0.332635 2.27346,1.774392 2.27346,4.43598 v 63.600708 c 0,4.21418 -0.38763,5.489507 -10.09185,5.489507 h -3.27149 v 3.049727 c 5.60034,-0.11133 11.47805,-0.22184 17.18931,-0.22184 5.76679,0 11.64437,0.11131 17.24483,0.22184 v -3.049737 h -3.27149 c -9.70368,0 -10.09184,-1.275285 -10.09184,-5.489507 V 29.500985 c 0,-2.550692 0,-3.992383 2.107,-4.435981 0.94292,-0.111326 4.38058,-0.111326 6.48772,-0.111326 17.91024,0 19.6846,3.382428 21.18173,22.845241 h 2.107 z m 58.59644,75.314442 h -2.10713 c -2.60608,17.24483 -4.10334,26.61582 -24.78599,26.61582 h -16.30219 c -4.6577,0 -4.87955,-0.61 -4.87955,-4.54687 V 86.904781 h 10.97897 c 11.03449,0 12.08806,3.992375 12.08806,13.696059 h 2.10713 V 70.103548 h -2.10713 c 0,9.759129 -1.05424,13.751504 -12.08806,13.751504 H 179.37 V 54.633103 c 0,-3.992369 0.22132,-4.546863 4.87955,-4.546863 h 16.08034 c 18.18748,0 20.29462,7.2639 21.95806,22.845241 h 2.10714 l -2.82794,-25.89498 H 162.2361 v 3.049739 c 8.09562,0 9.37091,0 9.37091,5.267715 v 63.212565 c 0,5.26771 -1.27555,5.26771 -9.37091,5.26771 v 3.04973 h 60.9945 z m 31.84188,-40.048483 17.35575,-24.952335 c 1.77437,-2.439783 5.2677,-7.485692 14.916,-7.652036 v -3.049739 c -2.71714,0.27724 -7.15313,0.27724 -9.98106,0.27724 -3.88136,0 -8.70551,0 -11.64437,-0.27724 v 3.049739 c 3.77058,0.388163 4.71322,2.717023 4.71322,4.602311 0,1.386242 -0.61027,2.328887 -1.3862,3.493324 L 257.73421,55.062833 240.37846,29.777809 c -0.7766,-1.330807 -0.88658,-1.663483 -0.88658,-1.996185 0,-1.053566 1.27555,-3.049724 5.15677,-3.216068 v -3.049739 c -3.77057,0.27724 -9.53723,0.27724 -13.41873,0.27724 -2.99424,0 -8.87196,0 -11.69989,-0.27724 v 3.049739 c 6.43219,0 8.53919,0.27724 11.14542,3.881459 l 22.62345,33.103431 -20.40553,29.665539 c -5.04586,7.263899 -12.64254,7.374796 -14.91585,7.374796 v 3.049739 c 2.717,-0.22185 7.20838,-0.22185 9.98091,-0.22185 3.16058,0 8.70552,0 11.64437,0.22185 v -3.049739 c -3.65965,-0.332629 -4.71323,-2.717015 -4.71323,-4.546862 0,-1.552586 0.61028,-2.384334 1.16423,-3.216081 l 18.79736,-27.170311 20.40554,29.776451 c 0.94291,1.275284 0.94291,1.663484 0.94291,1.996187 0,0.942645 -1.05289,2.938832 -5.21231,3.160616 v 3.049739 c 3.77058,-0.22185 9.53736,-0.22185 13.41874,-0.22185 3.04977,0 8.87196,0 11.69989,0.22185 v -3.049739 c -7.48563,0 -8.65012,-0.609868 -11.0345,-3.881466 z m 0,0"
       style="fill:#52bfff;fill-opacity:1;fill-rule:nonzero;stroke:none;stroke-width:4.73171"
       aria-label="L&#10;A&#10;T&#10;E&#10;X" />
  </g>
</svg>
